<svg width="642" height="639" viewBox="0 0 642 639" fill="none" xmlns="http://www.w3.org/2000/svg">
<path opacity="0.4" d="M449.498 -260C474.834 -260 499.921 -255.01 523.328 -245.314C546.735 -235.619 568.004 -221.407 585.919 -203.492C603.834 -185.577 618.046 -164.308 627.741 -140.901C637.307 -117.808 642.288 -93.079 642.42 -68.0898H642.427V-3.42676H707.089V-3.41992C732.078 -3.28805 756.807 1.69328 779.9 11.2588C803.307 20.9543 824.576 35.166 842.491 53.0811C860.406 70.9961 874.618 92.2648 884.313 115.672C894.009 139.079 898.999 164.167 898.999 189.502C898.999 214.837 894.009 239.925 884.313 263.332C874.618 286.739 860.406 308.008 842.491 325.923C824.576 343.838 803.307 358.05 779.9 367.745C756.807 377.311 732.078 382.292 707.089 382.424V382.431H642.428V447.09H642.421C642.289 472.079 637.308 496.808 627.742 519.901C618.047 543.309 603.835 564.577 585.92 582.492C568.005 600.407 546.736 614.619 523.329 624.314C499.922 634.01 474.835 639 449.499 639C424.163 639 399.076 634.01 375.669 624.314C352.262 614.619 330.993 600.407 313.078 582.492C295.163 564.577 280.951 543.308 271.256 519.901C261.69 496.808 256.709 472.079 256.577 447.09H256.57V382.429H191.91V382.421C166.921 382.289 142.192 377.309 119.099 367.743C95.6916 358.048 74.4228 343.836 56.5078 325.921C38.5928 308.006 24.3811 286.737 14.6855 263.33C4.99012 239.923 3.27275e-05 214.835 0 189.5C-3.32236e-06 164.164 4.99013 139.077 14.6855 115.67C24.3811 92.2628 38.5927 70.9942 56.5078 53.0791C74.4229 35.1641 95.6915 20.9524 119.099 11.2568C142.192 1.69141 166.921 -3.29002 191.91 -3.42187V-3.42871H256.569V-68.0898H256.576C256.708 -93.079 261.689 -117.808 271.255 -140.901C280.95 -164.309 295.162 -185.577 313.077 -203.492C330.992 -221.407 352.261 -235.619 375.668 -245.314C399.075 -255.01 424.162 -260 449.498 -260ZM257.57 446.09H257.572L257.573 446.589C257.641 471.617 262.601 496.392 272.18 519.519C281.825 542.804 295.963 563.963 313.785 581.785C331.607 599.607 352.766 613.745 376.052 623.391C399.337 633.036 424.295 638 449.499 638C474.703 638 499.661 633.036 522.946 623.391C546.232 613.745 567.391 599.607 585.213 581.785C603.035 563.963 617.173 542.804 626.818 519.519C636.397 496.392 641.357 471.617 641.425 446.589L641.426 446.09H641.428V382.774H513.796V446.571H513.786C513.722 454.844 512.062 463.028 508.896 470.674C505.665 478.474 500.929 485.561 494.959 491.531C488.989 497.501 481.902 502.237 474.102 505.468C466.302 508.699 457.942 510.361 449.499 510.361C441.056 510.361 432.696 508.699 424.896 505.468C417.097 502.237 410.009 497.501 404.039 491.531C398.069 485.561 393.333 478.474 390.103 470.674C386.936 463.028 385.276 454.844 385.212 446.571H385.202V382.774H257.57V446.09ZM386.202 445.571H386.209V446.071C386.209 454.382 387.846 462.613 391.026 470.291C394.207 477.97 398.869 484.947 404.746 490.824C410.623 496.701 417.601 501.363 425.279 504.544C432.958 507.724 441.188 509.361 449.499 509.361C457.81 509.361 466.04 507.724 473.719 504.544C481.397 501.363 488.375 496.701 494.252 490.824C500.129 484.947 504.791 477.97 507.972 470.291C511.152 462.612 512.789 454.382 512.789 446.071V445.571H512.796V382.774H386.202V445.571ZM257.226 381.774H384.165V253.797H257.226V381.774ZM385.165 381.774H512.797V254.143H385.165V381.774ZM513.797 381.774H641.773V254.836H513.797V381.774ZM642.773 125.205H706.57V125.215C714.843 125.279 723.027 126.938 730.673 130.105C738.473 133.336 745.56 138.072 751.53 144.042C757.5 150.012 762.236 157.099 765.467 164.899C768.697 172.699 770.36 181.059 770.36 189.502C770.36 197.944 768.698 206.305 765.467 214.104C762.236 221.904 757.5 228.992 751.53 234.962C745.56 240.932 738.473 245.668 730.673 248.898C723.027 252.065 714.843 253.725 706.57 253.789V253.799H642.773V381.431H706.089V381.429L706.588 381.428C731.616 381.36 756.391 376.4 779.518 366.821C802.803 357.176 823.962 343.038 841.784 325.216C859.606 307.394 873.744 286.235 883.39 262.949C893.035 239.664 897.999 214.706 897.999 189.502C897.999 164.298 893.035 139.34 883.39 116.055C873.744 92.769 859.606 71.6103 841.784 53.7881C823.962 35.9659 802.803 21.8279 779.518 12.1826C756.391 2.60352 731.616 -2.35634 706.588 -2.42383L706.089 -2.42578V-2.42676H642.773V125.205ZM192.91 -2.42676L192.411 -2.42578C167.383 -2.35832 142.607 2.60152 119.48 12.1807C96.1948 21.8259 75.0369 35.9641 57.2148 53.7861C39.3926 71.6083 25.2547 92.7669 15.6094 116.053C5.96424 139.338 0.999997 164.296 1 189.5C1.00003 214.704 5.96421 239.662 15.6094 262.947C25.2547 286.233 39.3927 307.392 57.2148 325.214C75.0369 343.036 96.1949 357.174 119.48 366.819C142.607 376.398 167.383 381.357 192.411 381.425L192.91 381.427V381.429H256.226V253.797H192.429V253.787C184.156 253.723 175.972 252.063 168.326 248.896C160.526 245.666 153.439 240.93 147.469 234.96C141.499 228.99 136.763 221.902 133.532 214.103C130.301 206.303 128.639 197.943 128.639 189.5C128.639 181.057 130.301 172.697 133.532 164.897C136.763 157.097 141.499 150.01 147.469 144.04C153.439 138.07 160.526 133.334 168.326 130.104C175.972 126.937 184.156 125.277 192.429 125.213V125.203H256.225V124.165H256.226V-2.42871H192.91V-2.42676ZM514.141 253.836H641.772V126.204H514.141V253.836ZM385.856 253.143H513.141V125.857H385.856V253.143ZM642.772 252.799H705.57V252.792H706.07C714.381 252.792 722.612 251.155 730.29 247.975C737.969 244.794 744.946 240.132 750.823 234.255C756.7 228.378 761.362 221.4 764.543 213.722C767.723 206.043 769.36 197.813 769.36 189.502C769.36 181.191 767.723 172.961 764.543 165.282C761.362 157.604 756.7 150.626 750.823 144.749C744.946 138.872 737.969 134.21 730.29 131.029C722.611 127.849 714.382 126.212 706.07 126.212H705.57V126.205H642.772V252.799ZM193.429 126.203V126.21H192.929C184.618 126.21 176.388 127.847 168.709 131.027C161.03 134.208 154.053 138.87 148.176 144.747C142.299 150.624 137.637 157.602 134.456 165.28C131.276 172.959 129.639 181.189 129.639 189.5C129.639 197.811 131.276 206.041 134.456 213.72C137.637 221.398 142.299 228.376 148.176 234.253C154.053 240.13 161.03 244.792 168.709 247.973C176.387 251.153 184.618 252.79 192.929 252.79H193.429V252.797H256.225V126.203H193.429ZM257.226 126.203H257.225V252.797H384.856V125.165H257.226V126.203ZM514.833 125.204H641.773V-2.77441H514.833V125.204ZM386.201 124.857H513.833V-2.77441H386.201V124.857ZM257.226 124.165H385.201V-2.77441H257.226V124.165ZM449.498 -259C424.294 -259 399.336 -254.036 376.051 -244.391C352.765 -234.745 331.606 -220.607 313.784 -202.785C295.962 -184.963 281.824 -163.804 272.179 -140.519C262.6 -117.392 257.64 -92.6171 257.572 -67.5889L257.571 -67.0898H257.569V-3.77441H385.201V-67.5713H385.211C385.275 -75.8438 386.935 -84.0279 390.102 -91.6738C393.332 -99.4738 398.068 -106.561 404.038 -112.531C410.008 -118.501 417.096 -123.237 424.896 -126.468C432.695 -129.699 441.055 -131.361 449.498 -131.361C457.941 -131.361 466.301 -129.699 474.101 -126.468C481.901 -123.237 488.988 -118.501 494.958 -112.531C500.928 -106.561 505.664 -99.4738 508.895 -91.6738C512.062 -84.0279 513.721 -75.8438 513.785 -67.5713H513.795V-3.77441H641.427V-67.0898H641.425L641.424 -67.5889C641.356 -92.6171 636.396 -117.392 626.817 -140.519C617.172 -163.804 603.034 -184.963 585.212 -202.785C567.39 -220.607 546.231 -234.745 522.945 -244.391C499.66 -254.036 474.702 -259 449.498 -259ZM449.498 -130.361C441.187 -130.361 432.957 -128.724 425.278 -125.544C417.6 -122.363 410.622 -117.701 404.745 -111.824C398.868 -105.947 394.206 -98.9697 391.025 -91.291C387.845 -83.6125 386.208 -75.3825 386.208 -67.0713V-66.5713H386.201V-3.77441H512.795V-66.5713H512.788V-67.0713C512.788 -75.3825 511.151 -83.6125 507.971 -91.291C504.79 -98.9697 500.128 -105.947 494.251 -111.824C488.374 -117.701 481.396 -122.363 473.718 -125.544C466.039 -128.724 457.809 -130.361 449.498 -130.361Z" fill="url(#paint0_linear_43_33)"/>
<defs>
<linearGradient id="paint0_linear_43_33" x1="449.499" y1="-84" x2="449.499" y2="785" gradientUnits="userSpaceOnUse">
<stop stop-color="#092A77"/>
<stop offset="1" stop-color="white"/>
</linearGradient>
</defs>
</svg>
