<svg width="117" height="32" viewBox="0 0 117 32" fill="none" xmlns="http://www.w3.org/2000/svg">
<path d="M1.37037 12.201V1.67789L1.16406 0.0207157H4.96021L10.7782 5.94513L11.5828 6.85658H11.8098V0.0207157H15.771V12.201H12.3256L6.3425 6.21442L5.53789 5.24083H5.33157V12.201H1.37037Z" fill="white"/>
<path d="M22.954 12.4081C21.5786 12.4081 20.5333 12.0836 19.8181 11.4345C19.1166 10.7855 18.7659 9.73593 18.7659 8.28589V0.0207157H22.789V7.91303C22.789 8.56209 22.9472 8.9971 23.2635 9.21806C23.5798 9.43901 23.9718 9.54949 24.4395 9.54949H27.1009C27.541 9.54949 27.9262 9.43901 28.2563 9.21806C28.5864 8.98329 28.7514 8.54828 28.7514 7.91303V0.0207157H32.7126V8.28589C32.7126 9.73593 32.3619 10.7855 31.6604 11.4345C30.9727 12.0836 29.9343 12.4081 28.5451 12.4081H22.954Z" fill="white"/>
<path d="M38.4618 12.201L34.0467 0.0414302H38.4412L40.5043 6.96015L40.9788 8.76233H41.1851L41.4533 7.56088L43.5783 0.0414302H48.3235L50.5723 7.56088L50.9437 8.76233H51.15L51.6245 6.96015L53.502 0.0414302H57.8345L57.6282 1.28431L53.3782 12.201H48.633L46.4461 5.51012L46.0335 3.77008H45.8271L45.4352 5.51012L43.2689 12.201H38.4618Z" fill="white"/>
<path d="M56.5556 12.201L62.6005 0.0207157H67.9646L73.9889 12.201H69.5532L68.5423 9.9845H62.0228L60.8881 12.201H56.5556ZM63.1575 7.12587H67.387L65.3857 2.71363H65.1794L63.1575 7.12587Z" fill="white"/>
<path d="M75.8113 12.201V0.0207157H79.7725V12.201H75.8113Z" fill="white"/>
<path d="M96.4541 12.4081C95.9039 12.4081 95.2919 12.3253 94.6179 12.1595C93.944 11.98 93.2769 11.5519 92.6167 10.8752L91.7502 10.0052C91.3376 9.59092 90.9387 9.25258 90.5536 8.9902C90.1822 8.72781 89.7558 8.53447 89.2744 8.41018C88.793 8.27208 88.1879 8.20304 87.4589 8.20304H87.2938V12.201H83.2707V1.67789L83.0644 0H92.6167C93.497 0 94.2053 0.110479 94.7417 0.331436C95.2919 0.538584 95.7114 0.821685 96.0002 1.18074C96.3028 1.52599 96.5091 1.91957 96.6192 2.36148C96.7292 2.80339 96.7842 3.25221 96.7842 3.70794V4.10152C96.7842 4.93011 96.571 5.67584 96.1446 6.33871C95.732 6.98777 95.0718 7.4504 94.164 7.7266C94.5079 7.93374 94.8311 8.1478 95.1337 8.36875C95.4501 8.5759 95.8077 8.79686 96.2065 9.03162C96.6604 9.29401 97.0799 9.48735 97.465 9.61164C97.8639 9.72212 98.194 9.79116 98.4553 9.81878C98.7167 9.8464 98.868 9.86021 98.9092 9.86021L98.2903 12.201C98.1252 12.2424 97.8708 12.2838 97.5269 12.3253C97.1968 12.3805 96.8392 12.4081 96.4541 12.4081ZM89.6871 5.44798C90.0309 5.44798 90.361 5.44107 90.6774 5.42726C91.0075 5.41345 91.3032 5.39274 91.5645 5.36512C92.0321 5.30988 92.3485 5.16487 92.5135 4.93011C92.6923 4.68153 92.7817 4.38462 92.7817 4.03937V3.81151C92.7817 3.5077 92.6923 3.27293 92.5135 3.10721C92.3485 2.94149 92.039 2.85863 91.5851 2.85863H87.2938V5.36512C87.6377 5.37893 88.0159 5.39964 88.4286 5.42726C88.8412 5.44107 89.2607 5.44798 89.6871 5.44798Z" fill="white"/>
<path d="M99.2888 12.201L105.334 0.0207157H110.698L116.722 12.201H112.286L111.276 9.9845H104.756L103.621 12.201H99.2888ZM105.891 7.12587H110.12L108.119 2.71363H107.913L105.891 7.12587Z" fill="white"/>
<path d="M3.90671 18.8804H4.92702L8.8203 28.3936H7.53149L6.40378 25.6066H2.40309L1.28881 28.3936H0L3.90671 18.8804ZM6.13528 24.6687L4.41686 20.2739L2.64475 24.6687H6.13528Z" fill="white"/>
<path d="M12.7959 28.5276C12.2679 28.5276 11.7846 28.4338 11.346 28.2462C10.9164 28.0497 10.5405 27.7817 10.2183 27.4423C9.90504 27.1028 9.65891 26.7142 9.47991 26.2766C9.30986 25.8389 9.22483 25.3744 9.22483 24.8831C9.22483 24.2221 9.37251 23.6191 9.66786 23.0742C9.96321 22.5293 10.3794 22.0961 10.9164 21.7745C11.4534 21.444 12.0754 21.2788 12.7825 21.2788C13.4716 21.2788 14.0713 21.4351 14.5815 21.7478C15.1006 22.0515 15.4854 22.4624 15.736 22.9804L14.5815 23.3422C14.4025 23.0117 14.1518 22.7571 13.8296 22.5785C13.5074 22.3909 13.1494 22.2971 12.7556 22.2971C12.326 22.2971 11.9322 22.4088 11.5742 22.6321C11.2252 22.8554 10.9477 23.1636 10.7419 23.5566C10.536 23.9407 10.4331 24.3829 10.4331 24.8831C10.4331 25.3744 10.536 25.821 10.7419 26.223C10.9567 26.616 11.2386 26.9286 11.5877 27.1609C11.9457 27.3931 12.3395 27.5092 12.7691 27.5092C13.0465 27.5092 13.3105 27.4601 13.5611 27.3619C13.8207 27.2636 14.0444 27.1341 14.2324 26.9733C14.4293 26.8036 14.5636 26.6205 14.6352 26.4239L15.7897 26.7723C15.6465 27.1117 15.4272 27.4155 15.1319 27.6834C14.8455 27.9425 14.5009 28.1479 14.0981 28.2998C13.7043 28.4516 13.2703 28.5276 12.7959 28.5276Z" fill="white"/>
<path d="M16.5779 26.3703C16.5779 25.9237 16.7032 25.5396 16.9538 25.218C17.2134 24.8875 17.5669 24.633 18.0144 24.4543C18.4619 24.2757 18.981 24.1863 19.5717 24.1863C19.885 24.1863 20.2161 24.2131 20.5652 24.2667C20.9142 24.3114 21.223 24.3829 21.4915 24.4811V23.972C21.4915 23.436 21.3304 23.0162 21.0082 22.7125C20.686 22.3998 20.2295 22.2435 19.6388 22.2435C19.254 22.2435 18.8826 22.315 18.5246 22.4579C18.1755 22.5919 17.8041 22.7884 17.4103 23.0474L16.9807 22.2167C17.4371 21.9041 17.8936 21.6718 18.35 21.52C18.8065 21.3592 19.2808 21.2788 19.7731 21.2788C20.6681 21.2788 21.3752 21.5289 21.8943 22.0291C22.4134 22.5204 22.6729 23.2082 22.6729 24.0925V27.0537C22.6729 27.1966 22.6998 27.3038 22.7535 27.3753C22.8161 27.4378 22.9146 27.4735 23.0488 27.4824V28.3936C22.9325 28.4114 22.8295 28.4248 22.74 28.4338C22.6595 28.4427 22.5924 28.4472 22.5387 28.4472C22.2612 28.4472 22.0509 28.3712 21.9077 28.2194C21.7734 28.0675 21.6974 27.9067 21.6795 27.737L21.6526 27.2949C21.3483 27.6879 20.95 27.9916 20.4578 28.206C19.9655 28.4204 19.4777 28.5276 18.9944 28.5276C18.529 28.5276 18.1129 28.4338 17.7459 28.2462C17.3789 28.0497 17.0925 27.7906 16.8867 27.4691C16.6808 27.1385 16.5779 26.7723 16.5779 26.3703ZM21.1425 26.8661C21.2499 26.741 21.3349 26.616 21.3975 26.4909C21.4602 26.3569 21.4915 26.2453 21.4915 26.156V25.285C21.2141 25.1779 20.9232 25.0975 20.6189 25.0439C20.3146 24.9813 20.0147 24.9501 19.7194 24.9501C19.1197 24.9501 18.632 25.0707 18.2561 25.3118C17.8891 25.5441 17.7056 25.8657 17.7056 26.2766C17.7056 26.4999 17.7638 26.7187 17.8801 26.9331C18.0054 27.1385 18.1845 27.3083 18.4172 27.4423C18.6588 27.5762 18.9542 27.6432 19.3032 27.6432C19.6702 27.6432 20.0192 27.5718 20.3504 27.4289C20.6815 27.277 20.9455 27.0894 21.1425 26.8661Z" fill="white"/>
<path d="M24.1055 24.9099C24.1055 24.2489 24.2398 23.6459 24.5083 23.101C24.7857 22.5472 25.1616 22.1051 25.636 21.7745C26.1193 21.444 26.6697 21.2788 27.2873 21.2788C27.8511 21.2788 28.3568 21.4262 28.8043 21.721C29.2518 22.0157 29.6009 22.373 29.8515 22.7929V18.6124H31.0329V27.0537C31.0329 27.1966 31.0597 27.3038 31.1134 27.3753C31.1761 27.4378 31.2745 27.4735 31.4088 27.4824V28.3936C31.185 28.4293 31.0105 28.4472 30.8852 28.4472C30.6525 28.4472 30.4466 28.3668 30.2676 28.206C30.0976 28.0452 30.0126 27.8665 30.0126 27.67V27.0805C29.7351 27.5271 29.3637 27.8799 28.8983 28.139C28.4329 28.398 27.9496 28.5276 27.4484 28.5276C26.9651 28.5276 26.5176 28.4338 26.1059 28.2462C25.7031 28.0497 25.3496 27.7817 25.0453 27.4423C24.7499 27.1028 24.5172 26.7187 24.3472 26.29C24.1861 25.8523 24.1055 25.3922 24.1055 24.9099ZM29.8515 25.9416V23.9318C29.7441 23.6281 29.5695 23.3556 29.3279 23.1144C29.0862 22.8643 28.8133 22.6678 28.509 22.5249C28.2136 22.373 27.9183 22.2971 27.6229 22.2971C27.2738 22.2971 26.9561 22.373 26.6697 22.5249C26.3923 22.6678 26.1506 22.8643 25.9448 23.1144C25.7479 23.3556 25.5957 23.6325 25.4883 23.9452C25.3809 24.2578 25.3272 24.5838 25.3272 24.9233C25.3272 25.2716 25.3854 25.6021 25.5017 25.9148C25.627 26.2274 25.7971 26.5043 26.0119 26.7455C26.2356 26.9867 26.4907 27.1743 26.7771 27.3083C27.0725 27.4423 27.3902 27.5092 27.7303 27.5092C27.9451 27.5092 28.1644 27.4691 28.3881 27.3887C28.6208 27.3083 28.8401 27.1966 29.046 27.0537C29.2518 26.9108 29.4263 26.7455 29.5695 26.5579C29.7127 26.3614 29.8067 26.156 29.8515 25.9416Z" fill="white"/>
<path d="M36.1063 28.5276C35.5783 28.5276 35.095 28.4338 34.6564 28.2462C34.2268 28.0497 33.8509 27.7862 33.5287 27.4557C33.2154 27.1162 32.9693 26.7276 32.7903 26.29C32.6203 25.8523 32.5352 25.3878 32.5352 24.8965C32.5352 24.2355 32.6874 23.6325 32.9917 23.0876C33.296 22.5427 33.7166 22.1051 34.2536 21.7745C34.7996 21.444 35.4216 21.2788 36.1197 21.2788C36.8268 21.2788 37.4399 21.4485 37.959 21.7879C38.487 22.1185 38.8943 22.5561 39.1807 23.101C39.476 23.637 39.6237 24.2176 39.6237 24.8429C39.6237 24.9322 39.6192 25.0215 39.6103 25.1109C39.6103 25.1912 39.6058 25.2538 39.5968 25.2984H33.7838C33.8196 25.754 33.9449 26.1604 34.1597 26.5177C34.3834 26.8661 34.6698 27.143 35.0189 27.3485C35.3679 27.545 35.7438 27.6432 36.1466 27.6432C36.5762 27.6432 36.9789 27.536 37.3548 27.3217C37.7397 27.1073 38.0037 26.8259 38.1469 26.4775L39.1672 26.7589C39.0151 27.0983 38.7869 27.4021 38.4826 27.67C38.1872 27.938 37.8337 28.1479 37.422 28.2998C37.0192 28.4516 36.5807 28.5276 36.1063 28.5276ZM33.7435 24.4811H38.5228C38.487 24.0256 38.3573 23.6236 38.1335 23.2752C37.9097 22.9268 37.6233 22.6544 37.2743 22.4579C36.9252 22.2614 36.5404 22.1631 36.1197 22.1631C35.708 22.1631 35.3277 22.2614 34.9786 22.4579C34.6295 22.6544 34.3431 22.9268 34.1194 23.2752C33.9046 23.6236 33.7793 24.0256 33.7435 24.4811Z" fill="white"/>
<path d="M51.5025 28.3936H50.3211V24.4811C50.3211 23.7486 50.2003 23.2082 49.9586 22.8599C49.7259 22.5115 49.3769 22.3373 48.9115 22.3373C48.4371 22.3373 48.0075 22.5115 47.6226 22.8599C47.2378 23.1993 46.9648 23.6415 46.8037 24.1863V28.3936H45.6223V24.4811C45.6223 23.7397 45.5059 23.1993 45.2732 22.8599C45.0405 22.5115 44.6915 22.3373 44.2261 22.3373C43.7607 22.3373 43.3311 22.507 42.9373 22.8465C42.5524 23.177 42.2794 23.6191 42.1183 24.1729V28.3936H40.9369V21.3994H42.0109V22.9001C42.2973 22.382 42.6688 21.9845 43.1252 21.7076C43.5817 21.4217 44.0963 21.2788 44.6691 21.2788C45.2509 21.2788 45.7163 21.4396 46.0653 21.7612C46.4144 22.0738 46.6292 22.4802 46.7097 22.9804C47.023 22.4266 47.4034 22.0068 47.8509 21.721C48.2984 21.4262 48.8085 21.2788 49.3813 21.2788C49.7841 21.2788 50.1197 21.3547 50.3882 21.5066C50.6657 21.6495 50.8849 21.8549 51.046 22.1229C51.2071 22.382 51.3235 22.6901 51.3951 23.0474C51.4667 23.4047 51.5025 23.7933 51.5025 24.2131V28.3936Z" fill="white"/>
<path d="M53.5305 30.2962C53.6469 30.3051 53.7632 30.3141 53.8796 30.323C53.9959 30.3409 54.0854 30.3498 54.1481 30.3498C54.2913 30.3498 54.4166 30.3007 54.524 30.2024C54.6314 30.1042 54.7477 29.9121 54.873 29.6263C55.0073 29.3494 55.1773 28.9385 55.3832 28.3936L52.4162 21.3994H53.6648L56.0276 27.2011L58.1622 21.3994H59.3302L55.9202 30.2292C55.8396 30.4347 55.7188 30.6267 55.5577 30.8054C55.4056 30.9929 55.2087 31.1403 54.967 31.2475C54.7254 31.3547 54.4345 31.4083 54.0944 31.4083C54.0138 31.4083 53.9288 31.4038 53.8393 31.3949C53.7588 31.386 53.6558 31.3681 53.5305 31.3413V30.2962Z" fill="white"/>
</svg>
