<svg width="39" height="39" viewBox="0 0 39 39" fill="none" xmlns="http://www.w3.org/2000/svg">
<rect x="12.8555" width="12.9608" height="12.96" fill="white"/>
<path d="M12.9608 19.3877H12.9615C12.9615 20.2317 13.1278 21.0674 13.4508 21.8472C13.7738 22.6269 14.2472 23.3355 14.8441 23.9323C15.4409 24.5291 16.1495 25.0025 16.9293 25.3255C17.7091 25.6485 18.5449 25.8147 19.3889 25.8147C20.233 25.8147 21.0688 25.6485 21.8486 25.3255C22.6284 25.0025 23.337 24.5291 23.9338 23.9323C24.5307 23.3355 25.0041 22.6269 25.3271 21.8472C25.6501 21.0674 25.8164 20.2317 25.8164 19.3877H25.8171V12.96H38.7779V19.4399H38.7776C38.7708 21.9682 38.2697 24.4709 37.302 26.807C36.3276 29.1592 34.8994 31.2965 33.099 33.0968C31.2985 34.8971 29.1611 36.3253 26.8087 37.2996C24.4564 38.2739 21.9351 38.7754 19.3889 38.7754C16.8428 38.7754 14.3215 38.2739 11.9692 37.2996C9.61679 36.3253 7.47936 34.8971 5.67893 33.0968C3.8785 31.2965 2.45026 29.1592 1.47587 26.807C0.508167 24.4709 0.00712085 21.9682 0.000306219 19.4399H0V12.96H12.9608V19.3877Z" fill="white"/>
</svg>
