<svg width="165" height="39" viewBox="0 0 165 39" fill="none" xmlns="http://www.w3.org/2000/svg">
<path d="M49.6497 19.1801V8.65702L49.4434 6.99984H53.2395L59.0575 12.9243L59.8621 13.8357H60.0891V6.99984H64.0503V19.1801H60.6049L54.6218 13.1935L53.8172 12.22H53.6109V19.1801H49.6497Z" fill="white"/>
<path d="M71.2333 19.3873C69.8579 19.3873 68.8126 19.0627 68.0974 18.4137C67.3959 17.7646 67.0452 16.7151 67.0452 15.265V6.99984H71.0683V14.8922C71.0683 15.5412 71.2265 15.9762 71.5428 16.1972C71.8591 16.4181 72.2511 16.5286 72.7188 16.5286H75.3802C75.8203 16.5286 76.2055 16.4181 76.5356 16.1972C76.8657 15.9624 77.0307 15.5274 77.0307 14.8922V6.99984H80.9919V15.265C80.9919 16.7151 80.6412 17.7646 79.9397 18.4137C79.252 19.0627 78.2136 19.3873 76.8244 19.3873H71.2333Z" fill="white"/>
<path d="M86.7411 19.1801L82.326 7.02056H86.7205L88.7836 13.9393L89.2581 15.7415H89.4644L89.7326 14.54L91.8576 7.02056H96.6028L98.8516 14.54L99.223 15.7415H99.4293L99.9038 13.9393L101.781 7.02056H106.114L105.908 8.26344L101.657 19.1801H96.9123L94.7254 12.4892L94.3128 10.7492H94.1064L93.7144 12.4892L91.5482 19.1801H86.7411Z" fill="white"/>
<path d="M104.835 19.1801L110.88 6.99984H116.244L122.268 19.1801H117.833L116.822 16.9636H110.302L109.167 19.1801H104.835ZM111.437 14.105H115.666L113.665 9.69276H113.459L111.437 14.105Z" fill="white"/>
<path d="M124.091 19.1801V6.99984H128.052V19.1801H124.091Z" fill="white"/>
<path d="M144.733 19.3873C144.183 19.3873 143.571 19.3044 142.897 19.1387C142.223 18.9591 141.556 18.531 140.896 17.8544L140.029 16.9843C139.617 16.57 139.218 16.2317 138.833 15.9693C138.462 15.7069 138.035 15.5136 137.554 15.3893C137.072 15.2512 136.467 15.1822 135.738 15.1822H135.573V19.1801H131.55V8.65702L131.344 6.97913H140.896C141.776 6.97913 142.485 7.0896 143.021 7.31056C143.571 7.51771 143.991 7.80081 144.28 8.15987C144.582 8.50511 144.788 8.89869 144.898 9.34061C145.008 9.78252 145.064 10.2313 145.064 10.6871V11.0806C145.064 11.9092 144.85 12.655 144.424 13.3178C144.011 13.9669 143.351 14.4295 142.443 14.7057C142.787 14.9129 143.11 15.1269 143.413 15.3479C143.729 15.555 144.087 15.776 144.486 16.0108C144.94 16.2731 145.359 16.4665 145.744 16.5908C146.143 16.7012 146.473 16.7703 146.735 16.7979C146.996 16.8255 147.147 16.8393 147.189 16.8393L146.57 19.1801C146.405 19.2215 146.15 19.263 145.806 19.3044C145.476 19.3596 145.119 19.3873 144.733 19.3873ZM137.966 12.4271C138.31 12.4271 138.64 12.4202 138.957 12.4064C139.287 12.3926 139.582 12.3719 139.844 12.3442C140.311 12.289 140.628 12.144 140.793 11.9092C140.972 11.6607 141.061 11.3637 141.061 11.0185V10.7906C141.061 10.4868 140.972 10.2521 140.793 10.0863C140.628 9.92062 140.318 9.83776 139.864 9.83776H135.573V12.3442C135.917 12.3581 136.295 12.3788 136.708 12.4064C137.12 12.4202 137.54 12.4271 137.966 12.4271Z" fill="white"/>
<path d="M147.568 19.1801L153.613 6.99984H158.977L165.002 19.1801H160.566L159.555 16.9636H153.035L151.901 19.1801H147.568ZM154.17 14.105H158.399L156.398 9.69276H156.192L154.17 14.105Z" fill="white"/>
<path d="M52.186 25.8595H53.2063L57.0996 35.3727H55.8108L54.6831 32.5857H50.6824L49.5681 35.3727H48.2793L52.186 25.8595ZM54.4146 31.6478L52.6962 27.253L50.924 31.6478H54.4146Z" fill="white"/>
<path d="M61.0752 35.5067C60.5472 35.5067 60.0639 35.4129 59.6253 35.2253C59.1957 35.0288 58.8198 34.7608 58.4976 34.4214C58.1843 34.0819 57.9382 33.6934 57.7592 33.2557C57.5892 32.818 57.5041 32.3535 57.5041 31.8622C57.5041 31.2012 57.6518 30.5982 57.9472 30.0534C58.2425 29.5085 58.6587 29.0752 59.1957 28.7537C59.7327 28.4232 60.3547 28.2579 61.0618 28.2579C61.7509 28.2579 62.3506 28.4142 62.8608 28.7269C63.3799 29.0306 63.7647 29.4415 64.0153 29.9596L62.8608 30.3213C62.6817 29.9908 62.4311 29.7363 62.1089 29.5576C61.7867 29.37 61.4287 29.2762 61.0349 29.2762C60.6053 29.2762 60.2115 29.3879 59.8535 29.6112C59.5045 29.8345 59.227 30.1427 59.0212 30.5357C58.8153 30.9198 58.7124 31.362 58.7124 31.8622C58.7124 32.3535 58.8153 32.8001 59.0212 33.2021C59.236 33.5951 59.5179 33.9078 59.867 34.14C60.225 34.3722 60.6188 34.4884 61.0484 34.4884C61.3258 34.4884 61.5898 34.4392 61.8404 34.341C62.1 34.2427 62.3237 34.1132 62.5117 33.9524C62.7086 33.7827 62.8428 33.5996 62.9144 33.4031L64.069 33.7514C63.9258 34.0909 63.7065 34.3946 63.4112 34.6626C63.1248 34.9216 62.7802 35.127 62.3774 35.2789C61.9836 35.4308 61.5496 35.5067 61.0752 35.5067Z" fill="white"/>
<path d="M64.8572 33.3495C64.8572 32.9028 64.9825 32.5187 65.2331 32.1972C65.4927 31.8667 65.8462 31.6121 66.2937 31.4334C66.7412 31.2548 67.2603 31.1655 67.851 31.1655C68.1643 31.1655 68.4954 31.1923 68.8445 31.2459C69.1935 31.2905 69.5023 31.362 69.7708 31.4602V30.9511C69.7708 30.4151 69.6097 29.9953 69.2875 29.6916C68.9653 29.379 68.5088 29.2226 67.9181 29.2226C67.5333 29.2226 67.1619 29.2941 66.8039 29.437C66.4548 29.571 66.0834 29.7675 65.6896 30.0266L65.26 29.1958C65.7164 28.8832 66.1729 28.651 66.6293 28.4991C67.0858 28.3383 67.5601 28.2579 68.0524 28.2579C68.9474 28.2579 69.6544 28.508 70.1736 29.0083C70.6927 29.4995 70.9522 30.1873 70.9522 31.0717V34.0328C70.9522 34.1757 70.9791 34.2829 71.0328 34.3544C71.0954 34.4169 71.1939 34.4526 71.3281 34.4616V35.3727C71.2118 35.3906 71.1088 35.404 71.0193 35.4129C70.9388 35.4218 70.8717 35.4263 70.818 35.4263C70.5405 35.4263 70.3302 35.3504 70.187 35.1985C70.0527 35.0467 69.9767 34.8859 69.9588 34.7162L69.9319 34.274C69.6276 34.667 69.2293 34.9707 68.7371 35.1851C68.2448 35.3995 67.757 35.5067 67.2737 35.5067C66.8083 35.5067 66.3921 35.4129 66.0252 35.2253C65.6582 35.0288 65.3718 34.7697 65.166 34.4482C64.9601 34.1177 64.8572 33.7514 64.8572 33.3495ZM69.4217 33.8452C69.5291 33.7202 69.6142 33.5951 69.6768 33.4701C69.7395 33.3361 69.7708 33.2244 69.7708 33.1351V32.2642C69.4933 32.157 69.2025 32.0766 68.8982 32.023C68.5939 31.9605 68.294 31.9292 67.9987 31.9292C67.399 31.9292 66.9113 32.0498 66.5353 32.291C66.1684 32.5232 65.9849 32.8448 65.9849 33.2557C65.9849 33.479 66.0431 33.6978 66.1594 33.9122C66.2847 34.1177 66.4637 34.2874 66.6965 34.4214C66.9381 34.5554 67.2335 34.6224 67.5825 34.6224C67.9495 34.6224 68.2985 34.5509 68.6297 34.408C68.9608 34.2561 69.2248 34.0685 69.4217 33.8452Z" fill="white"/>
<path d="M72.3848 31.889C72.3848 31.228 72.5191 30.625 72.7876 30.0802C73.065 29.5263 73.4409 29.0842 73.9153 28.7537C74.3986 28.4232 74.949 28.2579 75.5666 28.2579C76.1304 28.2579 76.6361 28.4053 77.0836 28.7001C77.5311 28.9949 77.8802 29.3522 78.1308 29.772V25.5916H79.3122V34.0328C79.3122 34.1757 79.339 34.2829 79.3927 34.3544C79.4554 34.4169 79.5538 34.4526 79.6881 34.4616V35.3727C79.4643 35.4084 79.2898 35.4263 79.1645 35.4263C78.9318 35.4263 78.7259 35.3459 78.5469 35.1851C78.3769 35.0243 78.2919 34.8457 78.2919 34.6492V34.0596C78.0144 34.5062 77.643 34.8591 77.1776 35.1181C76.7122 35.3772 76.2289 35.5067 75.7277 35.5067C75.2444 35.5067 74.7969 35.4129 74.3852 35.2253C73.9824 35.0288 73.6289 34.7608 73.3246 34.4214C73.0292 34.0819 72.7965 33.6978 72.6265 33.2691C72.4654 32.8314 72.3848 32.3714 72.3848 31.889ZM78.1308 32.9207V30.9109C78.0234 30.6072 77.8488 30.3347 77.6072 30.0936C77.3655 29.8434 77.0926 29.6469 76.7883 29.504C76.4929 29.3522 76.1975 29.2762 75.9022 29.2762C75.5531 29.2762 75.2354 29.3522 74.949 29.504C74.6716 29.6469 74.4299 29.8434 74.2241 30.0936C74.0272 30.3347 73.875 30.6116 73.7676 30.9243C73.6602 31.2369 73.6065 31.563 73.6065 31.9024C73.6065 32.2508 73.6647 32.5813 73.781 32.8939C73.9063 33.2066 74.0764 33.4835 74.2912 33.7246C74.5149 33.9658 74.77 34.1534 75.0564 34.2874C75.3518 34.4214 75.6695 34.4884 76.0096 34.4884C76.2244 34.4884 76.4437 34.4482 76.6674 34.3678C76.9001 34.2874 77.1194 34.1757 77.3253 34.0328C77.5311 33.8899 77.7056 33.7246 77.8488 33.5371C77.992 33.3405 78.086 33.1351 78.1308 32.9207Z" fill="white"/>
<path d="M84.3856 35.5067C83.8576 35.5067 83.3742 35.4129 82.9357 35.2253C82.5061 35.0288 82.1302 34.7653 81.808 34.4348C81.4947 34.0953 81.2486 33.7068 81.0696 33.2691C80.8996 32.8314 80.8145 32.3669 80.8145 31.8756C80.8145 31.2146 80.9667 30.6116 81.271 30.0668C81.5753 29.5219 81.9959 29.0842 82.5329 28.7537C83.0789 28.4232 83.7009 28.2579 84.399 28.2579C85.1061 28.2579 85.7192 28.4276 86.2383 28.7671C86.7663 29.0976 87.1736 29.5353 87.46 30.0802C87.7553 30.6161 87.903 31.1967 87.903 31.822C87.903 31.9113 87.8985 32.0007 87.8896 32.09C87.8896 32.1704 87.8851 32.2329 87.8761 32.2776H82.0631C82.0989 32.7331 82.2242 33.1396 82.439 33.4969C82.6627 33.8452 82.9491 34.1221 83.2982 34.3276C83.6472 34.5241 84.0231 34.6224 84.4259 34.6224C84.8555 34.6224 85.2582 34.5152 85.6341 34.3008C86.019 34.0864 86.283 33.805 86.4262 33.4567L87.4465 33.738C87.2944 34.0775 87.0662 34.3812 86.7619 34.6492C86.4665 34.9171 86.113 35.127 85.7013 35.2789C85.2985 35.4308 84.86 35.5067 84.3856 35.5067ZM82.0228 31.4602H86.8021C86.7663 31.0047 86.6365 30.6027 86.4128 30.2543C86.189 29.906 85.9026 29.6335 85.5536 29.437C85.2045 29.2405 84.8197 29.1422 84.399 29.1422C83.9873 29.1422 83.6069 29.2405 83.2579 29.437C82.9088 29.6335 82.6224 29.906 82.3987 30.2543C82.1839 30.6027 82.0586 31.0047 82.0228 31.4602Z" fill="white"/>
<path d="M99.7818 35.3727H98.6004V31.4602C98.6004 30.7278 98.4796 30.1873 98.2379 29.839C98.0052 29.4906 97.6562 29.3164 97.1907 29.3164C96.7164 29.3164 96.2868 29.4906 95.9019 29.839C95.5171 30.1784 95.2441 30.6206 95.083 31.1655V35.3727H93.9016V31.4602C93.9016 30.7188 93.7852 30.1784 93.5525 29.839C93.3198 29.4906 92.9708 29.3164 92.5054 29.3164C92.04 29.3164 91.6104 29.4861 91.2166 29.8256C90.8317 30.1561 90.5587 30.5982 90.3976 31.1521V35.3727H89.2162V28.3785H90.2902V29.8792C90.5766 29.3611 90.9481 28.9636 91.4045 28.6867C91.861 28.4008 92.3756 28.2579 92.9484 28.2579C93.5302 28.2579 93.9956 28.4187 94.3446 28.7403C94.6937 29.0529 94.9085 29.4593 94.989 29.9596C95.3023 29.4058 95.6827 28.9859 96.1302 28.7001C96.5777 28.4053 97.0878 28.2579 97.6606 28.2579C98.0634 28.2579 98.399 28.3338 98.6675 28.4857C98.945 28.6286 99.1642 28.8341 99.3253 29.102C99.4864 29.3611 99.6028 29.6693 99.6744 30.0266C99.746 30.3839 99.7818 30.7724 99.7818 31.1923V35.3727Z" fill="white"/>
<path d="M101.81 37.2753C101.926 37.2843 102.043 37.2932 102.159 37.3021C102.275 37.32 102.365 37.3289 102.427 37.3289C102.571 37.3289 102.696 37.2798 102.803 37.1815C102.911 37.0833 103.027 36.8912 103.152 36.6054C103.287 36.3285 103.457 35.9176 103.662 35.3727L100.696 28.3785H101.944L104.307 34.1802L106.441 28.3785H107.609L104.199 37.2083C104.119 37.4138 103.998 37.6058 103.837 37.7845C103.685 37.9721 103.488 38.1195 103.246 38.2266C103.005 38.3338 102.714 38.3874 102.374 38.3874C102.293 38.3874 102.208 38.383 102.119 38.374C102.038 38.3651 101.935 38.3472 101.81 38.3204V37.2753Z" fill="white"/>
<rect x="12.8555" width="12.9608" height="12.96" fill="white"/>
<path d="M12.9608 19.3877H12.9615C12.9615 20.2317 13.1278 21.0674 13.4508 21.8472C13.7738 22.6269 14.2472 23.3355 14.8441 23.9323C15.4409 24.5291 16.1495 25.0025 16.9293 25.3255C17.7091 25.6485 18.5449 25.8147 19.3889 25.8147C20.233 25.8147 21.0688 25.6485 21.8486 25.3255C22.6284 25.0025 23.337 24.5291 23.9338 23.9323C24.5307 23.3355 25.0041 22.6269 25.3271 21.8472C25.6501 21.0674 25.8164 20.2317 25.8164 19.3877H25.8171V12.96H38.7779V19.4399H38.7776C38.7708 21.9682 38.2697 24.4709 37.302 26.807C36.3276 29.1592 34.8994 31.2965 33.099 33.0968C31.2985 34.8971 29.1611 36.3253 26.8087 37.2996C24.4564 38.2739 21.9351 38.7754 19.3889 38.7754C16.8428 38.7754 14.3215 38.2739 11.9692 37.2996C9.61679 36.3253 7.47936 34.8971 5.67893 33.0968C3.8785 31.2965 2.45026 29.1592 1.47587 26.807C0.508167 24.4709 0.00712085 21.9682 0.000306219 19.4399H0V12.96H12.9608V19.3877Z" fill="white"/>
</svg>
